<?xml version="1.0" encoding="utf-8"?>
<!-- Generator: Adobe Illustrator 17.1.0, SVG Export Plug-In . SVG Version: 6.00 Build 0)  -->
<!DOCTYPE svg PUBLIC "-//W3C//DTD SVG 1.1//EN" "http://www.w3.org/Graphics/SVG/1.1/DTD/svg11.dtd">
<svg version="1.1" xmlns="http://www.w3.org/2000/svg" xmlns:xlink="http://www.w3.org/1999/xlink" x="0px" y="0px"
	 viewBox="0 0 556 135" style="enable-background:new 0 0 556 135;" xml:space="preserve">
<g id="Layer_4">
	<g>
		<g>
			<path style="fill:#898989;" d="M212,81.6c0,1.6-1.3,2.8-2.8,2.8h-68.7c-1.6,0-2.8-1.3-2.8-2.8V12.9c0-1.6,1.3-2.8,2.8-2.8h68.7
				c1.6,0,2.8,1.3,2.8,2.8V81.6z"/>
		</g>
		<polygon style="fill:#898989;" points="211.4,11.1 207.3,7.4 205.2,10.4 209.3,11.6 		"/>
		<polygon style="fill:#898989;" points="138.4,83.5 135.1,79.8 137.8,78.8 139.2,80.1 139.4,82.5 		"/>
	</g>
	<g>
		<path style="fill:#B7B7B7;" d="M208.3,77.8c0,1.6-1.3,2.8-2.8,2.8h-68.3c-1.6,0-2.8-1.3-2.8-2.8V9.5c0-1.6,1.3-2.8,2.8-2.8h68.3
			c1.6,0,2.8,1.3,2.8,2.8V77.8z"/>
	</g>
</g>
<g id="Layer_2">
	<g>
		<path style="fill:#BCBCBC;" d="M9.6,99c1.3-0.3,3.2-0.4,4.7-0.4c2.8,0,4.6,0.6,5.8,1.8c0.9,0.9,1.5,2.3,1.5,3.8
			c0,2.9-1.7,4.8-4.2,5.6v0.1c1.7,0.5,2.8,2.2,3.3,4.6c0.7,3.4,1.2,5,1.6,5.8h-1.6c-0.4-0.6-0.8-2.5-1.4-5.2c-0.7-3.1-2-4.5-4.9-4.6
			h-3.4v9.9H9.6V99z M11.2,109.1h3.4c3.3,0,5.5-1.9,5.5-4.7c0-3.3-2.4-4.6-5.8-4.6c-1.5,0-2.6,0.2-3.1,0.3V109.1z"/>
		<path style="fill:#BCBCBC;" d="M27.2,101.8c-0.7,0-1.2-0.6-1.2-1.3c0-0.7,0.5-1.3,1.2-1.3c0.7,0,1.2,0.6,1.2,1.3
			C28.5,101.2,28,101.8,27.2,101.8L27.2,101.8z M26.5,120.3v-15.4H28v15.4H26.5z"/>
		<path style="fill:#BCBCBC;" d="M29.3,125.7c1.3-0.1,2.5-0.5,3.2-1.3c0.8-1,1.2-2.2,1.2-6.2v-13.3h1.5v14.3c0,2.8-0.3,4.6-1.6,6.1
			c-1.1,1.2-3,1.6-4,1.7L29.3,125.7z M34.4,101.8c-0.7,0-1.2-0.6-1.2-1.3c0-0.7,0.5-1.3,1.3-1.3c0.7,0,1.2,0.6,1.2,1.3
			C35.7,101.2,35.2,101.8,34.4,101.8L34.4,101.8z"/>
		<path style="fill:#BCBCBC;" d="M40,118.2c0.8,0.5,2.1,1.1,3.5,1.1c2.4,0,3.6-1.3,3.6-2.9c0-1.7-1-2.6-3.2-3.5
			c-2.5-1-3.9-2.3-3.9-4.2c0-2.2,1.8-4.2,4.7-4.2c1.4,0,2.6,0.4,3.4,1l-0.6,1.2c-0.5-0.4-1.5-0.9-3.1-0.9c-2,0-3,1.2-3,2.7
			c0,1.6,1.1,2.3,3.2,3.1c2.5,1,4,2.2,4,4.6c0,2.6-2,4.4-5.2,4.4c-1.5,0-2.9-0.4-3.9-1.1L40,118.2z"/>
		<path style="fill:#BCBCBC;" d="M63.5,119.6c-0.7,0.3-2.3,1-4.5,1c-4.4,0-7.4-3.2-7.4-7.8c0-4.9,3.3-8.2,7.9-8.2c1.9,0,3.5,0.5,4,1
			l-0.5,1.2c-0.7-0.4-1.9-0.9-3.6-0.9c-4.1,0-6.2,3.1-6.2,6.8c0,4,2.5,6.7,6.1,6.7c1.8,0,3-0.5,3.8-0.9L63.5,119.6z"/>
		<path style="fill:#BCBCBC;" d="M67.5,97.5H69v10.1h0.1c0.4-0.9,1.2-1.7,2.1-2.2c0.9-0.5,2-0.9,3.1-0.9c1.4,0,5.3,0.7,5.3,6.5v9.2
			h-1.5v-9.1c0-2.8-1.1-5.3-4.2-5.3c-2.2,0-4,1.6-4.6,3.5c-0.2,0.5-0.2,0.9-0.2,1.5v9.4h-1.5V97.5z"/>
		<path style="fill:#BCBCBC;" d="M90.7,120.6c-4,0-7-3.1-7-7.9c0-5.2,3.5-8.2,7.3-8.2c4.3,0,7.1,3.2,7.1,7.9
			C98.1,118.2,94.2,120.6,90.7,120.6L90.7,120.6z M90.8,119.3c3.2,0,5.7-2.9,5.7-6.8c0-2.8-1.6-6.7-5.6-6.7c-3.9,0-5.7,3.5-5.7,6.8
			C85.2,116.5,87.7,119.3,90.8,119.3L90.8,119.3z"/>
		<path style="fill:#BCBCBC;" d="M102.3,97.5h1.5v22.8h-1.5V97.5z"/>
		<path style="fill:#BCBCBC;" d="M109.6,112.4c0,4.9,2.7,6.8,5.9,6.8c2.2,0,3.4-0.4,4.3-0.9l0.4,1.2c-0.6,0.3-2.1,1-4.8,1
			c-4.4,0-7.2-3.2-7.2-7.7c0-5.1,2.9-8.3,6.9-8.3c5,0,6,4.7,6,6.9c0,0.4,0,0.6-0.1,0.9H109.6z M119.4,111.2c0-2.1-0.9-5.4-4.6-5.4
			c-3.4,0-4.8,3-5.1,5.4H119.4z"/>
		<path style="fill:#BCBCBC;" d="M125.3,108.6c0-1.4,0-2.5-0.1-3.7h1.4l0.1,2.8h0.1c0.8-1.7,2.8-3.1,5.3-3.1c1.5,0,5.4,0.7,5.4,6.5
			v9.2h-1.5v-9.1c0-2.8-1.1-5.3-4.3-5.3c-2.1,0-4,1.5-4.6,3.6c-0.1,0.4-0.2,0.9-0.2,1.3v9.5h-1.5V108.6z"/>
		<path style="fill:#BCBCBC;" d="M149.6,104.9l3.6,9.5c0.6,1.5,1.1,2.8,1.5,4.1h0.1c0.4-1.3,1-2.6,1.6-4.1l3.6-9.5h1.6l-6.2,15.4
			H154l-6-15.4H149.6z"/>
		<path style="fill:#BCBCBC;" d="M164.8,112.4c0,4.9,2.7,6.8,5.9,6.8c2.2,0,3.4-0.4,4.3-0.9l0.4,1.2c-0.6,0.3-2.1,1-4.8,1
			c-4.4,0-7.2-3.2-7.2-7.7c0-5.1,2.9-8.3,6.9-8.3c5,0,6,4.7,6,6.9c0,0.4,0,0.6-0.1,0.9H164.8z M174.6,111.2c0-2.1-0.9-5.4-4.6-5.4
			c-3.4,0-4.8,3-5.1,5.4H174.6z"/>
		<path style="fill:#BCBCBC;" d="M180.4,109.5c0-1.5,0-3.1-0.1-4.6h1.4l0.1,3.1h0.1c0.7-2,2.3-3.5,4.4-3.5c0.2,0,0.4,0,0.6,0.1v1.4
			c-0.2,0-0.4,0-0.7,0c-2.1,0-3.6,1.8-4,4.3c-0.1,0.4-0.1,1-0.1,1.5v8.5h-1.5V109.5z"/>
		<path style="fill:#BCBCBC;" d="M202.2,118c0,3.9-0.8,5.9-2.1,7.1c-1.4,1.3-3.5,1.8-5.2,1.8c-1.8,0-3.7-0.4-4.9-1.3l0.5-1.2
			c1.1,0.7,2.6,1.3,4.6,1.3c3.2,0,5.6-1.7,5.6-6.2v-2.2h-0.1c-0.8,1.6-2.6,3-5.3,3c-3.9,0-6.6-3.4-6.6-7.6c0-5.3,3.5-8.2,6.9-8.2
			c3,0,4.5,1.7,5.2,2.9h0.1l0.1-2.6h1.4c-0.1,1.2-0.1,2.4-0.1,4V118z M200.6,110.8c0-0.6,0-1.1-0.2-1.5c-0.6-1.8-2.2-3.5-4.8-3.5
			c-3.3,0-5.5,2.7-5.5,6.7c0,3.5,1.8,6.4,5.4,6.4c2,0,4-1.3,4.8-3.5c0.2-0.5,0.3-1.1,0.3-1.6V110.8z"/>
		<path style="fill:#BCBCBC;" d="M207.9,112.4c0,4.9,2.7,6.8,5.9,6.8c2.2,0,3.4-0.4,4.3-0.9l0.4,1.2c-0.6,0.3-2.1,1-4.8,1
			c-4.4,0-7.2-3.2-7.2-7.7c0-5.1,2.9-8.3,6.9-8.3c5,0,6,4.7,6,6.9c0,0.4,0,0.6-0.1,0.9H207.9z M217.7,111.2c0-2.1-0.9-5.4-4.6-5.4
			c-3.4,0-4.8,3-5.1,5.4H217.7z"/>
		<path style="fill:#BCBCBC;" d="M223.5,97.5h1.5v22.8h-1.5V97.5z"/>
		<path style="fill:#BCBCBC;" d="M231.3,101.8c-0.7,0-1.2-0.6-1.2-1.3c0-0.7,0.5-1.3,1.2-1.3c0.7,0,1.2,0.6,1.2,1.3
			C232.6,101.2,232.1,101.8,231.3,101.8L231.3,101.8z M230.6,120.3v-15.4h1.5v15.4H230.6z"/>
		<path style="fill:#BCBCBC;" d="M233.4,125.7c1.3-0.1,2.5-0.5,3.2-1.3c0.8-1,1.2-2.2,1.2-6.2v-13.3h1.5v14.3c0,2.8-0.3,4.6-1.6,6.1
			c-1.1,1.2-3,1.6-4,1.7L233.4,125.7z M238.5,101.8c-0.7,0-1.2-0.6-1.2-1.3c0-0.7,0.5-1.3,1.3-1.3c0.7,0,1.2,0.6,1.2,1.3
			C239.8,101.2,239.3,101.8,238.5,101.8L238.5,101.8z"/>
		<path style="fill:#BCBCBC;" d="M246.3,112.3L246.3,112.3c0.4-0.5,1.1-1.2,1.5-1.7l5.4-5.7h1.9l-6.2,6.4l7.1,9h-1.9l-6.3-8.1
			l-1.6,1.7v6.4h-1.5V97.5h1.5V112.3z"/>
		<path style="fill:#BCBCBC;" d="M259.2,112.4c0,4.9,2.7,6.8,5.9,6.8c2.2,0,3.4-0.4,4.3-0.9l0.4,1.2c-0.6,0.3-2.1,1-4.8,1
			c-4.4,0-7.2-3.2-7.2-7.7c0-5.1,2.9-8.3,6.9-8.3c5,0,6,4.7,6,6.9c0,0.4,0,0.6-0.1,0.9H259.2z M269,111.2c0-2.1-0.9-5.4-4.6-5.4
			c-3.4,0-4.8,3-5.1,5.4H269z"/>
		<path style="fill:#BCBCBC;" d="M274.8,108.6c0-1.4,0-2.5-0.1-3.7h1.4l0.1,2.8h0.1c0.8-1.7,2.8-3.1,5.3-3.1c1.5,0,5.4,0.7,5.4,6.5
			v9.2h-1.5v-9.1c0-2.8-1.1-5.3-4.3-5.3c-2.1,0-4,1.5-4.6,3.6c-0.1,0.4-0.2,0.9-0.2,1.3v9.5h-1.5V108.6z"/>
		<path style="fill:#BCBCBC;" d="M313,120.3c-0.7-0.7-1.3-1.4-2.4-2.4c-2.2,2.1-4.3,2.8-6.6,2.8c-3.5,0-6.1-2.7-6.1-6
			c0-3,1.9-5,4.3-6.4v-0.1c-1.2-1.6-1.9-3.2-1.9-4.7c0-2.6,1.7-5.1,4.9-5.1c2.3,0,4.1,1.7,4.1,4.3c0,2.3-1.3,4.1-5,5.9v0.1
			c2.2,2.6,4.7,5.4,6.3,7.2c1.1-1.6,1.7-3.7,2.2-6.9h1.4c-0.6,3.5-1.4,6-2.8,7.8c1.1,1.1,2.1,2.2,3.4,3.6H313z M304.5,119.4
			c2.2,0,4.1-1,5.3-2.5c-1.2-1.4-4-4.5-6.8-7.7c-1.3,0.8-3.4,2.4-3.4,5.2C299.6,117.3,301.6,119.4,304.5,119.4L304.5,119.4z
			 M305,99.6c-2.1,0-3.2,1.7-3.2,3.7c0,1.8,0.9,3.1,1.8,4.4c2.6-1.4,4.4-2.7,4.4-4.9C308,101.3,307.1,99.6,305,99.6L305,99.6z"/>
		<path style="fill:#BCBCBC;" d="M337.4,118c0,3.9-0.8,5.9-2.1,7.1c-1.4,1.3-3.5,1.8-5.2,1.8c-1.8,0-3.7-0.4-4.9-1.3l0.5-1.2
			c1.1,0.7,2.6,1.3,4.6,1.3c3.2,0,5.6-1.7,5.6-6.2v-2.2h-0.1c-0.8,1.6-2.6,3-5.3,3c-3.9,0-6.6-3.4-6.6-7.6c0-5.3,3.5-8.2,6.9-8.2
			c3,0,4.5,1.7,5.2,2.9h0.1l0.1-2.6h1.4c-0.1,1.2-0.1,2.4-0.1,4V118z M335.9,110.8c0-0.6,0-1.1-0.2-1.5c-0.6-1.8-2.2-3.5-4.8-3.5
			c-3.3,0-5.5,2.7-5.5,6.7c0,3.5,1.8,6.4,5.4,6.4c2,0,4-1.3,4.8-3.5c0.2-0.5,0.3-1.1,0.3-1.6V110.8z"/>
		<path style="fill:#BCBCBC;" d="M342.6,109.5c0-1.5,0-3.1-0.1-4.6h1.4l0.1,3.1h0.1c0.7-2,2.3-3.5,4.4-3.5c0.2,0,0.4,0,0.6,0.1v1.4
			c-0.2,0-0.4,0-0.7,0c-2.1,0-3.6,1.8-4,4.3c-0.1,0.4-0.1,1-0.1,1.5v8.5h-1.5V109.5z"/>
		<path style="fill:#BCBCBC;" d="M362,116.6c0,1.2,0,2.5,0.2,3.6h-1.4l-0.2-2.2h-0.1c-0.8,1.2-2.5,2.6-4.9,2.6
			c-3.1,0-4.5-2.2-4.5-4.2c0-3.6,3.1-5.7,9.4-5.6v-0.4c0-1.5-0.3-4.5-3.9-4.5c-1.3,0-2.8,0.4-3.9,1.2l-0.5-1.1
			c1.4-0.9,3.1-1.3,4.5-1.3c4.4,0,5.3,3.3,5.3,6V116.6z M360.5,112c-3.4-0.1-7.8,0.4-7.8,4.1c0,2.2,1.5,3.2,3.1,3.2
			c2.6,0,4-1.6,4.5-3.1c0.1-0.3,0.2-0.7,0.2-0.9V112z"/>
		<path style="fill:#BCBCBC;" d="M369.4,101.5v3.4h4.4v1.2h-4.4v10c0,2,0.6,3.2,2.2,3.2c0.8,0,1.4-0.1,1.8-0.2l0.2,1.2
			c-0.5,0.2-1.2,0.4-2.1,0.4c-1.1,0-2-0.4-2.6-1.1c-0.7-0.8-1-2.1-1-3.7v-9.7h-2.6v-1.2h2.6v-2.8L369.4,101.5z"/>
		<path style="fill:#BCBCBC;" d="M378.2,101.8c-0.7,0-1.2-0.6-1.2-1.3c0-0.7,0.5-1.3,1.2-1.3c0.7,0,1.2,0.6,1.2,1.3
			C379.5,101.2,379,101.8,378.2,101.8L378.2,101.8z M377.5,120.3v-15.4h1.5v15.4H377.5z"/>
		<path style="fill:#BCBCBC;" d="M383.8,118.2c0.8,0.5,2.1,1.1,3.5,1.1c2.4,0,3.6-1.3,3.6-2.9c0-1.7-1-2.6-3.2-3.5
			c-2.5-1-3.9-2.3-3.9-4.2c0-2.2,1.8-4.2,4.7-4.2c1.4,0,2.6,0.4,3.4,1l-0.6,1.2c-0.5-0.4-1.5-0.9-3.1-0.9c-2,0-3,1.2-3,2.7
			c0,1.6,1.1,2.3,3.2,3.1c2.5,1,4,2.2,4,4.6c0,2.6-2,4.4-5.2,4.4c-1.5,0-2.9-0.4-3.9-1.1L383.8,118.2z"/>
		<path style="fill:#BCBCBC;" d="M406.2,101.5v3.4h4.4v1.2h-4.4v10c0,2,0.6,3.2,2.2,3.2c0.8,0,1.4-0.1,1.8-0.2l0.2,1.2
			c-0.5,0.2-1.2,0.4-2.1,0.4c-1.1,0-2-0.4-2.6-1.1c-0.7-0.8-1-2.1-1-3.7v-9.7h-2.6v-1.2h2.6v-2.8L406.2,101.5z"/>
		<path style="fill:#BCBCBC;" d="M414.3,97.5h1.5v10.1h0.1c0.4-0.9,1.2-1.7,2.1-2.2c0.9-0.5,2-0.9,3.1-0.9c1.4,0,5.3,0.7,5.3,6.5
			v9.2h-1.5v-9.1c0-2.8-1.1-5.3-4.2-5.3c-2.2,0-4,1.6-4.6,3.5c-0.2,0.5-0.2,0.9-0.2,1.5v9.4h-1.5V97.5z"/>
		<path style="fill:#BCBCBC;" d="M432,112.4c0,4.9,2.7,6.8,5.9,6.8c2.2,0,3.4-0.4,4.3-0.9l0.4,1.2c-0.6,0.3-2.1,1-4.8,1
			c-4.4,0-7.2-3.2-7.2-7.7c0-5.1,2.9-8.3,6.9-8.3c5,0,6,4.7,6,6.9c0,0.4,0,0.6-0.1,0.9H432z M441.8,111.2c0-2.1-0.9-5.4-4.6-5.4
			c-3.4,0-4.8,3-5.1,5.4H441.8z"/>
		<path style="fill:#BCBCBC;" d="M453.3,120.6c-4,0-7-3.1-7-7.9c0-5.2,3.5-8.2,7.3-8.2c4.3,0,7.1,3.2,7.1,7.9
			C460.7,118.2,456.8,120.6,453.3,120.6L453.3,120.6z M453.4,119.3c3.2,0,5.7-2.9,5.7-6.8c0-2.8-1.6-6.7-5.6-6.7
			c-3.9,0-5.7,3.5-5.7,6.8C447.8,116.5,450.3,119.3,453.4,119.3L453.4,119.3z"/>
		<path style="fill:#BCBCBC;" d="M464.9,109.5c0-1.5,0-3.1-0.1-4.6h1.4l0.1,3.1h0.1c0.7-2,2.3-3.5,4.4-3.5c0.2,0,0.4,0,0.6,0.1v1.4
			c-0.2,0-0.4,0-0.7,0c-2.1,0-3.6,1.8-4,4.3c-0.1,0.4-0.1,1-0.1,1.5v8.5h-1.5V109.5z"/>
		<path style="fill:#BCBCBC;" d="M475.6,101.8c-0.7,0-1.2-0.6-1.2-1.3c0-0.7,0.5-1.3,1.2-1.3c0.7,0,1.2,0.6,1.2,1.3
			C476.9,101.2,476.4,101.8,475.6,101.8L475.6,101.8z M474.9,120.3v-15.4h1.5v15.4H474.9z"/>
		<path style="fill:#BCBCBC;" d="M482.1,112.4c0,4.9,2.7,6.8,5.9,6.8c2.2,0,3.4-0.4,4.3-0.9l0.4,1.2c-0.6,0.3-2.1,1-4.8,1
			c-4.4,0-7.2-3.2-7.2-7.7c0-5.1,2.9-8.3,6.9-8.3c5,0,6,4.7,6,6.9c0,0.4,0,0.6-0.1,0.9H482.1z M491.9,111.2c0-2.1-0.9-5.4-4.6-5.4
			c-3.4,0-4.8,3-5.1,5.4H491.9z"/>
	</g>
	<path style="fill:#FFFFFF;" d="M44,34.5h-8.2c0-0.4-0.1-0.7-0.1-0.9c-0.2-2.5-0.7-4-1.6-4.7c-0.9-0.6-3-1-6.4-1
		c-4,0-6.5,0.4-7.8,1.1c-1.2,0.7-1.8,2.3-1.8,4.6c0,2.8,0.5,4.4,1.5,5c1,0.6,4.3,1,9.8,1.3c6.6,0.4,10.8,1.3,12.7,2.8
		c1.9,1.5,2.9,4.6,2.9,9.4c0,5.8-1.1,9.6-3.4,11.3c-2.3,1.7-7.2,2.6-14.9,2.6c-6.9,0-11.5-0.8-13.8-2.5c-2.3-1.7-3.4-5.1-3.4-10.2
		l0-1.6h8.1l0,0.9c0,3.1,0.5,5,1.6,5.6c1.1,0.7,4,1,8.8,1c3.7,0,6.1-0.4,7.2-1.2c1-0.8,1.5-2.6,1.5-5.5c0-2.1-0.4-3.5-1.2-4.2
		c-0.8-0.7-2.5-1.1-5.1-1.3l-4.6-0.3c-7-0.4-11.4-1.4-13.3-2.9c-1.9-1.5-2.9-4.8-2.9-9.8c0-5.1,1.2-8.6,3.5-10.3
		c2.3-1.7,7-2.6,14-2.6c6.6,0,11.1,0.8,13.4,2.4c2.3,1.6,3.4,4.6,3.4,9.2V34.5z"/>
	<path style="fill:#FFFFFF;" d="M91.7,21.6v44H77.5L64.9,41.5c-0.6-1.2-1.6-3.3-2.9-6.3L60.6,32l-1.4-3.2h-0.3l0.1,2.9l0.1,2.9
		l0.1,5.8v25.2h-8.3v-44H65l11.4,22.3c1,2,2.2,4.4,3.5,7.2l1.7,3.6l1.7,3.6h0.3l-0.1-2.8l-0.1-2.8L83.3,47V21.6H91.7z"/>
	<path style="fill:#FFFFFF;" d="M106.9,28.7V40h20.6v6.2h-20.6v12.4h21.9v7H98.5v-44h30.1v7H106.9z"/>
	<path style="fill:#686868;" d="M166,21.6v36.5h20.6v7.5h-29v-44H166z"/>
	<path style="fill:#FFFFFF;" d="M252.1,34.1h-8.2c0-0.4-0.1-0.7-0.1-0.9c-0.2-2.5-0.7-4-1.6-4.7c-0.9-0.6-3-1-6.4-1
		c-4,0-6.5,0.4-7.8,1.1c-1.2,0.7-1.8,2.3-1.8,4.6c0,2.8,0.5,4.4,1.5,5c1,0.6,4.3,1,9.8,1.3c6.6,0.4,10.8,1.3,12.7,2.8
		c1.9,1.5,2.9,4.6,2.9,9.4c0,5.8-1.1,9.6-3.4,11.3c-2.3,1.7-7.2,2.6-14.9,2.6c-6.9,0-11.5-0.8-13.8-2.5c-2.3-1.7-3.4-5.1-3.4-10.2
		l0-1.6h8.1l0,0.9c0,3.1,0.5,5,1.6,5.6c1.1,0.7,4,1,8.8,1c3.7,0,6.1-0.4,7.2-1.2c1-0.8,1.5-2.6,1.5-5.5c0-2.1-0.4-3.5-1.2-4.2
		c-0.8-0.7-2.5-1.1-5.1-1.3l-4.6-0.3c-7-0.4-11.4-1.4-13.3-2.9c-1.9-1.5-2.9-4.8-2.9-9.8c0-5.1,1.2-8.6,3.5-10.3
		c2.3-1.7,7-2.6,14-2.6c6.6,0,11.1,0.8,13.4,2.4s3.4,4.6,3.4,9.2V34.1z"/>
	<path style="fill:#FFFFFF;" d="M267.3,21.2v36.5h20.6v7.5h-29v-44H267.3z"/>
	<path style="fill:#FFFFFF;" d="M320.8,56.8h-19l-2.7,8.4h-8.8l14.6-44h12.5l14.9,44h-8.7L320.8,56.8z M318.8,50.6l-7.6-22.9
		l-7.5,22.9H318.8z"/>
	<path style="fill:#FFFFFF;" d="M353.3,41.8h19.4l0.1,8.7c0,6.4-1.2,10.5-3.6,12.3c-2.4,1.8-7.7,2.8-16,2.8
		c-7.6,0-12.6-1.2-15.1-3.7c-2.5-2.4-3.7-7.4-3.7-15c0-9.6,0.5-15.7,1.5-18.2c1.2-3.1,3.1-5.2,5.6-6.3c2.5-1.1,6.7-1.6,12.7-1.6
		c7.8,0,12.9,0.8,15.1,2.5c2.3,1.7,3.4,5.4,3.4,11.1h-8.4c-0.2-2.9-0.8-4.7-1.9-5.4c-1.1-0.7-3.9-1-8.3-1c-4.8,0-7.9,0.6-9.2,1.8
		c-1.3,1.2-1.9,4-1.9,8.5l0,4.4l0.1,5.6c0,4.4,0.6,7.1,1.9,8.3c1.3,1.2,4.3,1.8,9,1.8c4.6,0,7.4-0.5,8.7-1.5c1.2-1,1.9-3.4,1.9-7.2
		l0-1.8h-11.1V41.8z"/>
	<path style="fill:#FFFFFF;" d="M386.2,28.3v11.3h20.6v6.2h-20.6v12.4h21.9v7h-30.3v-44h30.1v7H386.2z"/>
	<path style="fill:#FFFFFF;" d="M455.2,21.2v44H441l-12.6-24.1c-0.6-1.2-1.6-3.3-2.9-6.3l-1.4-3.2l-1.4-3.2h-0.3l0.1,2.9l0.1,2.9
		l0.1,5.8v25.2h-8.3v-44h14.1l11.4,22.3c1,2,2.2,4.4,3.5,7.2l1.7,3.6l1.7,3.6h0.3l-0.1-2.8l-0.1-2.8l-0.1-5.7V21.2H455.2z"/>
	<g>
		<path style="fill:#FFFFFF;" d="M469.1,59.3v5.9h-5v-5.9H469.1z"/>
		<path style="fill:#FFFFFF;" d="M514.8,21.2v44h-8.2l-18.4-29.9l-3-4.9l-1.5-2.4l-1.5-2.4h-0.1l0,1.6l0,1.7v3.3v33.2h-5v-44h8.1
			l16.1,26.2l4.2,6.9l2.1,3.4l2.1,3.4h0.1l0-1.6l0-1.7v-3.3V21.2H514.8z"/>
		<path style="fill:#FFFFFF;" d="M528.2,21.2v39.4h22.6v4.6h-27.6v-44H528.2z"/>
	</g>
</g>
</svg>
