<?xml version="1.0" encoding="utf-8"?>
<!-- Generator: Adobe Illustrator 16.0.0, SVG Export Plug-In . SVG Version: 6.00 Build 0)  -->
<!DOCTYPE svg PUBLIC "-//W3C//DTD SVG 1.1//EN" "http://www.w3.org/Graphics/SVG/1.1/DTD/svg11.dtd">
<svg version="1.1" id="Layer_1" xmlns="http://www.w3.org/2000/svg" xmlns:xlink="http://www.w3.org/1999/xlink" x="0px" y="0px"
	 width="64px" height="64px" viewBox="0 0 64 64" enable-background="new 0 0 64 64" xml:space="preserve">
<circle fill="#E0E0D1" cx="32" cy="32" r="24.417"/>
<g>
	<path opacity="0.2" fill="#231F20" enable-background="new    " d="M22.843,45.733c0,0.844-0.683,1.527-1.526,1.527h-1.526
		c-0.843,0-1.526-0.684-1.526-1.527v-8.393c0-0.844,0.683-1.525,1.526-1.525h1.526c0.843,0,1.526,0.682,1.526,1.525V45.733z"/>
	<path opacity="0.2" fill="#231F20" enable-background="new    " d="M45.733,45.733c0,0.844-0.683,1.527-1.525,1.527h-1.526
		c-0.844,0-1.526-0.684-1.526-1.527v-8.393c0-0.844,0.683-1.525,1.526-1.525h1.526c0.843,0,1.525,0.682,1.525,1.525V45.733z"/>
	<path fill="#4F5D73" d="M22.843,44.208c0,0.844-0.683,1.525-1.526,1.525h-1.526c-0.843,0-1.526-0.682-1.526-1.525v-8.393
		c0-0.844,0.683-1.527,1.526-1.527h1.526c0.843,0,1.526,0.684,1.526,1.527V44.208z"/>
	<path fill="#4F5D73" d="M45.733,44.208c0,0.844-0.683,1.525-1.525,1.525h-1.526c-0.844,0-1.526-0.682-1.526-1.525v-8.393
		c0-0.844,0.683-1.527,1.526-1.527h1.526c0.843,0,1.525,0.684,1.525,1.527V44.208z"/>
	<g opacity="0.2">
		<path fill="#231F20" d="M41.155,35.815H22.843c-2.525,0-4.578-2.055-4.578-4.578l0.03-0.299l1.549-7.729
			c0.707-2.618,2.398-4.181,4.525-4.181H39.63c2.127,0,3.818,1.563,4.525,4.181l0.022,0.098l1.556,7.93
			C45.733,33.761,43.681,35.815,41.155,35.815z M21.322,31.362c0.064,0.783,0.722,1.4,1.521,1.4h18.312
			c0.799,0,1.457-0.617,1.521-1.4l-1.48-7.404c-0.168-0.601-0.634-1.878-1.566-1.878H24.369c-0.932,0-1.398,1.277-1.566,1.878
			L21.322,31.362z"/>
	</g>
	<path fill="none" stroke="#C75C5C" stroke-width="4" stroke-miterlimit="10" d="M44.208,29.711c0,1.684-1.367,3.051-3.053,3.051
		H22.843c-1.686,0-3.052-1.367-3.052-3.051l1.526-7.631c0.412-1.526,1.366-3.052,3.052-3.052H39.63c1.686,0,2.64,1.526,3.052,3.052
		L44.208,29.711z"/>
	<g opacity="0.2">
		<path fill="#231F20" d="M47.26,39.63c0,1.686-1.366,3.053-3.052,3.053H19.791c-1.685,0-3.052-1.367-3.052-3.053v-3.814
			c0-1.686,1.367-3.053,3.052-3.053h24.417c1.686,0,3.052,1.367,3.052,3.053V39.63z"/>
		<path fill="#231F20" d="M44.208,44.208H19.791c-2.524,0-4.578-2.053-4.578-4.578v-3.814c0-2.525,2.053-4.578,4.578-4.578h24.417
			c2.524,0,4.578,2.053,4.578,4.578v3.814C48.786,42.155,46.732,44.208,44.208,44.208z M19.791,34.288
			c-0.841,0-1.526,0.686-1.526,1.527v3.814c0,0.842,0.685,1.525,1.526,1.525h24.417c0.842,0,1.525-0.684,1.525-1.525v-3.814
			c0-0.842-0.684-1.527-1.525-1.527H19.791z"/>
	</g>
	<path fill="#C75C5C" stroke="#C75C5C" stroke-width="4" stroke-miterlimit="10" d="M47.26,38.104c0,1.686-1.366,3.051-3.052,3.051
		H19.791c-1.685,0-3.052-1.365-3.052-3.051v-3.816c0-1.684,1.367-3.051,3.052-3.051h24.417c1.686,0,3.052,1.367,3.052,3.051V38.104z
		"/>
	<path fill="#F5CF87" stroke="#C75C5C" stroke-width="2" stroke-miterlimit="10" d="M23.606,36.577c0,1.686-1.367,3.053-3.052,3.053
		l0,0c-1.686,0-3.052-1.367-3.052-3.053l0,0c0-1.684,1.367-3.051,3.052-3.051l0,0C22.24,33.526,23.606,34.894,23.606,36.577
		L23.606,36.577z"/>
	<path fill="#F5CF87" stroke="#C75C5C" stroke-width="2" stroke-miterlimit="10" d="M46.497,36.577c0,1.686-1.367,3.053-3.053,3.053
		l0,0c-1.686,0-3.052-1.367-3.052-3.053l0,0c0-1.684,1.366-3.051,3.052-3.051l0,0C45.13,33.526,46.497,34.894,46.497,36.577
		L46.497,36.577z"/>
</g>
</svg>
