<?xml version="1.0" encoding="utf-8"?>
<!-- Generator: Adobe Illustrator 16.0.0, SVG Export Plug-In . SVG Version: 6.00 Build 0)  -->
<!DOCTYPE svg PUBLIC "-//W3C//DTD SVG 1.1//EN" "http://www.w3.org/Graphics/SVG/1.1/DTD/svg11.dtd">
<svg version="1.1" id="Layer_1" xmlns="http://www.w3.org/2000/svg" xmlns:xlink="http://www.w3.org/1999/xlink" x="0px" y="0px"
	 width="512px" height="512px" viewBox="0 0 512 512" enable-background="new 0 0 512 512" xml:space="preserve">
<g id="Layer_1_1_">
	<circle fill="#125E6E" cx="256" cy="253.663" r="200.387"/>
</g>
<g id="Layer_2">
	<g id="Favorite">
	</g>
	<g>
		<polygon fill="#FFFFFF" stroke="#CCCCCC" stroke-width="3" stroke-miterlimit="10" points="255.654,104.905 255.654,458.725 
			99.55,458.725 99.55,104.905 124.396,123.707 133.797,109.399 153.415,128.614 171.813,104.905 194.292,123.303 210.884,106.546 
			231.483,124.523 		"/>
		<g opacity="0.7">
			<rect x="114.823" y="156.049" fill="#8299CE" width="126.389" height="8.426"/>
		</g>
		<g opacity="0.7">
			<rect x="114.408" y="371.437" fill="#8299CE" width="68.47" height="8.427"/>
		</g>
		<g opacity="0.7">
			<rect x="114.408" y="390.959" fill="#8299CE" width="68.47" height="8.427"/>
		</g>
		<g opacity="0.7">
			<rect x="114.408" y="412.304" fill="#8299CE" width="68.47" height="8.426"/>
		</g>
		<g opacity="0.7">
			<g>
				<rect x="114.823" y="338.03" fill="#8299CE" width="126.389" height="8.427"/>
			</g>
			<g>
				<rect x="114.823" y="319.889" fill="#8299CE" width="126.389" height="8.427"/>
			</g>
			<g>
				<rect x="114.823" y="301.746" fill="#8299CE" width="126.389" height="8.427"/>
			</g>
			<g>
				<rect x="114.823" y="283.604" fill="#8299CE" width="126.389" height="8.427"/>
			</g>
			<g>
				<rect x="114.823" y="265.462" fill="#8299CE" width="126.389" height="8.427"/>
			</g>
			<g>
				<rect x="114.823" y="247.32" fill="#8299CE" width="126.389" height="8.426"/>
			</g>
			<g>
				<rect x="114.823" y="229.178" fill="#8299CE" width="126.389" height="8.427"/>
			</g>
			<g>
				<rect x="114.823" y="211.036" fill="#8299CE" width="126.389" height="8.426"/>
			</g>
			<g>
				<rect x="114.823" y="192.894" fill="#8299CE" width="126.389" height="8.426"/>
			</g>
			<g>
				<rect x="114.823" y="174.752" fill="#8299CE" width="126.389" height="8.426"/>
			</g>
		</g>
		<g>
			<path opacity="0.2" fill="#231F20" enable-background="new    " d="M255.654,194.618v166.354l-66.12,8.923
				c-9.128,1.237-17.68-5.904-19.016-15.85l-9.409-69.806l-2.639-19.52l-2.028-15l-3.083-22.892
				c-1.345-9.938,5.03-19.099,14.15-20.319l22.934-3.092L255.654,194.618z"/>
		</g>
		<g>
			<path fill="#BA334D" d="M432.309,315.675c1.289,9.595-5.117,18.443-14.237,19.678l-153.496,20.691l-68.026,9.177
				c-9.128,1.235-17.645-5.608-18.933-15.194l-9.065-67.252l-2.544-18.803l-1.95-14.449l-2.974-22.057
				c-1.295-9.578,5.119-18.436,14.24-19.662l22.932-3.091l91.758-12.385l8.664-1.164l98.158-13.236
				c9.129-1.227,17.653,5.607,18.941,15.193l14.31,106.085L432.309,315.675z"/>
			<path fill="#D51920" enable-background="new    " d="M432.309,315.675c1.289,9.595-5.117,18.443-14.237,19.678l-153.496,20.691
				l-68.026,9.177c-9.128,1.235-17.645-5.608-18.933-15.194l-9.065-67.252l-2.544-18.803l-1.95-14.449l-2.974-22.057
				c-1.295-9.578,5.119-18.436,14.24-19.662l22.932-3.091l91.758-12.385l8.664-1.164l98.158-13.236
				c9.129-1.227,17.653,5.607,18.941,15.193l14.31,106.085L432.309,315.675z"/>
		</g>
		<path fill="#BA334D" d="M434.315,313.046c1.29,9.595-5.118,18.443-14.237,19.678l-153.496,20.691l-68.026,9.177
			c-9.128,1.235-17.646-5.606-18.933-15.193l-9.065-67.252l-2.544-18.803l-1.95-14.449l-2.974-22.057
			c-1.295-9.578,5.119-18.436,14.24-19.663l22.933-3.091l91.758-12.384l8.663-1.164l98.159-13.236
			c9.128-1.227,17.653,5.607,18.941,15.193l14.31,106.085L434.315,313.046z"/>
		<path fill="#E3E3E3" d="M246.128,328.145c0.354,2.633-1.834,5.101-4.888,5.512l-40.538,5.448
			c-3.053,0.411-5.815-1.392-6.168-4.024l-0.537-3.991c-0.354-2.634,1.834-5.102,4.888-5.512l40.537-5.449
			c3.055-0.411,5.816,1.392,6.17,4.025L246.128,328.145z"/>
		<path fill="#E3E3E3" d="M303.87,320.383c0.354,2.633-1.835,5.101-4.888,5.512l-40.538,5.448c-3.054,0.411-5.814-1.392-6.169-4.024
			l-0.536-3.991c-0.354-2.634,1.834-5.101,4.888-5.512l40.538-5.449c3.053-0.41,5.814,1.392,6.168,4.025L303.87,320.383z"/>
		<path fill="#E3E3E3" d="M362.324,312.525c0.354,2.634-1.834,5.102-4.888,5.513l-40.538,5.448
			c-3.054,0.411-5.814-1.392-6.169-4.026l-0.535-3.989c-0.354-2.635,1.833-5.102,4.887-5.513l40.538-5.449
			c3.054-0.411,5.815,1.392,6.169,4.026L362.324,312.525z"/>
		<path fill="#E3E3E3" d="M420.422,304.716c0.354,2.634-1.833,5.102-4.887,5.512l-40.538,5.449c-3.054,0.41-5.815-1.392-6.169-4.025
			l-0.536-3.989c-0.354-2.635,1.834-5.102,4.888-5.513l40.538-5.449c3.054-0.411,5.814,1.393,6.168,4.025L420.422,304.716z"/>
		<path id="XMLID_1_" fill="#F79497" enable-background="new    " d="M310.361,261.745c0.314,2.334-2.194,4.599-5.603,5.057
			l-104.233,14.012c-3.408,0.458-6.425-1.063-6.739-3.398l-4.396-32.702c-0.314-2.334,2.194-4.599,5.603-5.056l104.233-14.011
			c3.408-0.459,6.426,1.063,6.739,3.397L310.361,261.745z"/>
		<g>
			<g>
				<path id="SVGID_17_" fill="#F5BA3D" d="M341.185,254.534c1.245,9.233,9.739,15.708,18.973,14.463l23.027-3.104
					c9.234-1.245,15.709-9.74,14.464-18.973l-3.105-23.028c-1.246-9.233-9.74-15.709-18.973-14.463l-23.028,3.106
					c-9.233,1.245-15.708,9.739-14.464,18.972L341.185,254.534z"/>
			</g>
			<g>
				<g>
					<defs>
						<path id="SVGID_1_" d="M341.185,254.534c1.245,9.233,9.739,15.708,18.973,14.463l23.027-3.104
							c9.234-1.245,15.709-9.74,14.464-18.973l-3.105-23.028c-1.246-9.233-9.74-15.709-18.973-14.463l-23.028,3.106
							c-9.233,1.245-15.708,9.739-14.464,18.972L341.185,254.534z"/>
					</defs>
					<clipPath id="SVGID_2_">
						<use xlink:href="#SVGID_1_"  overflow="visible"/>
					</clipPath>
					<path clip-path="url(#SVGID_2_)" fill="#F5BA3D" d="M341.185,254.534c1.245,9.233,9.739,15.708,18.973,14.463l23.027-3.104
						c9.234-1.245,15.709-9.74,14.464-18.973l-3.105-23.028c-1.246-9.233-9.74-15.709-18.973-14.463l-23.028,3.106
						c-9.233,1.245-15.708,9.739-14.464,18.972L341.185,254.534z"/>
				</g>
			</g>
			<g>
				<g>
					<defs>
						<path id="SVGID_3_" d="M341.185,254.534c1.245,9.233,9.739,15.708,18.973,14.463l23.027-3.104
							c9.234-1.245,15.709-9.74,14.464-18.973l-3.105-23.028c-1.246-9.233-9.74-15.709-18.973-14.463l-23.028,3.106
							c-9.233,1.245-15.708,9.739-14.464,18.972L341.185,254.534z"/>
					</defs>
					<clipPath id="SVGID_4_">
						<use xlink:href="#SVGID_3_"  overflow="visible"/>
					</clipPath>
					<circle clip-path="url(#SVGID_4_)" fill="#F5BA3D" cx="340.843" cy="242.845" r="34.421"/>
				</g>
			</g>
			<g>
				<g>
					<defs>
						<path id="SVGID_5_" d="M341.185,254.534c1.245,9.233,9.739,15.708,18.973,14.463l23.027-3.104
							c9.234-1.245,15.709-9.74,14.464-18.973l-3.105-23.028c-1.246-9.233-9.74-15.709-18.973-14.463l-23.028,3.106
							c-9.233,1.245-15.708,9.739-14.464,18.972L341.185,254.534z"/>
					</defs>
					<clipPath id="SVGID_6_">
						<use xlink:href="#SVGID_5_"  overflow="visible"/>
					</clipPath>
					<circle clip-path="url(#SVGID_6_)" fill="#F5BA3D" cx="395.583" cy="236.194" r="34.421"/>
				</g>
			</g>
			<g>
				<g>
					<defs>
						<path id="SVGID_7_" d="M341.185,254.534c1.245,9.233,9.739,15.708,18.973,14.463l23.027-3.104
							c9.234-1.245,15.709-9.74,14.464-18.973l-3.105-23.028c-1.246-9.233-9.74-15.709-18.973-14.463l-23.028,3.106
							c-9.233,1.245-15.708,9.739-14.464,18.972L341.185,254.534z"/>
					</defs>
					<clipPath id="SVGID_8_">
						<use xlink:href="#SVGID_7_"  overflow="visible"/>
					</clipPath>
					<circle clip-path="url(#SVGID_8_)" fill="#F5BA3D" cx="364.888" cy="212.15" r="34.421"/>
				</g>
			</g>
			<g>
				<g>
					<defs>
						<path id="SVGID_9_" d="M341.185,254.534c1.245,9.233,9.739,15.708,18.973,14.463l23.027-3.104
							c9.234-1.245,15.709-9.74,14.464-18.973l-3.105-23.028c-1.246-9.233-9.74-15.709-18.973-14.463l-23.028,3.106
							c-9.233,1.245-15.708,9.739-14.464,18.972L341.185,254.534z"/>
					</defs>
					<clipPath id="SVGID_10_">
						<use xlink:href="#SVGID_9_"  overflow="visible"/>
					</clipPath>
					<circle clip-path="url(#SVGID_10_)" fill="#F5BA3D" cx="371.537" cy="266.89" r="34.421"/>
				</g>
			</g>
		</g>
		<g opacity="0.7">
			<path fill="#8DC63F" d="M222.324,364.585l-0.157,7.611c5.364,0.352,10.544,1.9,13.553,3.727l-2.598,9.326
				c-3.327-1.913-8.021-3.692-13.229-3.8c-4.567-0.094-7.729,1.606-7.795,4.811c-0.063,3.045,2.462,5.021,8.351,7.146
				c8.516,3.061,14.282,7.188,14.123,14.961c-0.146,7.052-5.227,12.479-13.835,13.985l-0.156,7.613l-7.854-0.161l0.146-7.053
				c-5.364-0.35-8.948-1.546-11.566-2.884l2.511-9.007c2.064,0.924,5.713,2.843,11.482,2.962c5.209,0.106,6.938-2.103,6.984-4.345
				c0.055-2.645-2.715-4.386-9.474-7.091c-9.467-3.561-13.222-8.048-13.074-15.26c0.147-7.131,5.32-13.118,14.569-14.532
				l0.168-8.173L222.324,364.585z"/>
		</g>
	</g>
</g>
</svg>
