<?xml version="1.0" encoding="utf-8"?>
<!-- Generator: Adobe Illustrator 16.0.0, SVG Export Plug-In . SVG Version: 6.00 Build 0)  -->
<!DOCTYPE svg PUBLIC "-//W3C//DTD SVG 1.1//EN" "http://www.w3.org/Graphics/SVG/1.1/DTD/svg11.dtd">
<svg version="1.1" id="Capa_1" xmlns="http://www.w3.org/2000/svg" xmlns:xlink="http://www.w3.org/1999/xlink" x="0px" y="0px"
	 width="512px" height="512px" viewBox="0 0 512 512" enable-background="new 0 0 512 512" xml:space="preserve">
<g>
	<g>
		<path fill="#EA5353" d="M390.971,179.146c-13.246-20.547-31.33-38.074-52.286-50.684c-3.92-2.357-8.805-2.425-12.788-0.173
			c-3.98,2.252-6.445,6.472-6.445,11.047v26.253c0,3.96,1.85,7.694,5,10.095c28.119,21.419,44.903,55.181,44.903,90.312
			c0,62.502-50.85,113.353-113.354,113.353c-62.503,0-113.354-50.85-113.354-113.353c0-35.132,16.786-68.893,44.903-90.312
			c3.15-2.4,5-6.135,5-10.095v-26.253c0-4.575-2.463-8.795-6.444-11.047c-3.984-2.252-8.87-2.185-12.79,0.173
			c-20.959,12.61-39.038,30.136-52.288,50.684c-16.694,25.891-25.518,55.922-25.518,86.851c0,42.867,16.694,83.171,47.006,113.482
			c30.314,30.313,70.615,47.006,113.482,47.006c42.866,0,83.17-16.693,113.482-47.006c30.312-30.313,47.006-70.615,47.006-113.482
			C416.49,235.068,407.665,205.037,390.971,179.146z"/>
		<path fill="#EA5353" d="M241.177,280.429h29.651c6.563,0,11.901-5.34,11.901-11.902V97.417c0-6.563-5.338-11.903-11.901-11.903
			h-29.651c-6.563,0-11.902,5.339-11.902,11.903v171.109C229.275,275.089,234.615,280.429,241.177,280.429z"/>
	</g>
</g>
</svg>
