<?xml version="1.0" encoding="utf-8"?>
<!-- Generator: Adobe Illustrator 16.0.0, SVG Export Plug-In . SVG Version: 6.00 Build 0)  -->
<!DOCTYPE svg PUBLIC "-//W3C//DTD SVG 1.1//EN" "http://www.w3.org/Graphics/SVG/1.1/DTD/svg11.dtd">
<svg version="1.1" id="Capa_1" xmlns="http://www.w3.org/2000/svg" xmlns:xlink="http://www.w3.org/1999/xlink" x="0px" y="0px"
	 width="512px" height="512px" viewBox="0 0 512 512" enable-background="new 0 0 512 512" xml:space="preserve">
<g>
	<g id="Layer_1_107_">
		<g>
			<path fill="#1777B5" d="M418.438,136.377c-3.769-4.319-9.194-6.805-14.914-6.805H130.925l-3.847-22.961
				c-1.578-9.508-9.804-16.491-19.45-16.491H63.243c-10.909,0-19.726,8.818-19.726,19.727s8.817,19.726,19.726,19.726h27.676
				l36.691,220.226c0.158,0.888,0.611,1.617,0.887,2.446c0.315,1.046,0.572,2.031,1.065,2.979c0.631,1.302,1.48,2.405,2.367,3.53
				c0.612,0.77,1.164,1.539,1.875,2.21c1.144,1.065,2.466,1.813,3.807,2.564c0.75,0.414,1.401,0.966,2.21,1.282
				c2.288,0.927,4.695,1.479,7.24,1.479c0.019,0,217.01,0,217.01,0c10.909,0,19.727-8.817,19.727-19.727
				c0-10.908-8.817-19.727-19.727-19.727H163.789l-3.275-19.726h223.283c9.824,0,18.148-7.221,19.528-16.926L423.052,152.1
				C423.862,146.419,422.165,140.679,418.438,136.377z M380.779,169.025l-5.622,39.453h-70.266v-39.453H380.779z M285.164,169.025
				v39.453h-59.179v-39.453H285.164z M285.164,228.204v39.453h-59.179v-39.453H285.164z M206.26,169.025v39.453h-59.18
				c-1.045,0-1.992,0.296-2.919,0.592l-6.667-40.044H206.26z M147.357,228.204h58.903v39.453h-52.335L147.357,228.204z
				 M304.891,267.657v-39.453h67.426l-5.622,39.453H304.891z"/>
			<circle fill="#006DF0" cx="176.67" cy="415.605" r="29.59"/>
			<circle fill="#006DF0" cx="354.207" cy="415.605" r="29.59"/>
		</g>
	</g>
</g>
</svg>
